# xmcd
#
# Track frame offsets:
#	150
#	18875
#	34900
#	54400
#	69262
#	82675
#	104725
#	119075
#	135400
#	157850
#	171250
#	193500
#
# Disc length: 2882 seconds
#
# Revision: 2
# Processed by: cddbd v1.5.1PL0 Copyright (c) Steve Scherf et al.
# Submitted via: dBpowerAMP V4.0
#
DISCID=940b400c
DTITLE=Stephen Ackles - Let's Keep The Night
DYEAR=1993
DGENRE=country
TTITLE0=Let's Keep The Night
TTITLE1=Goodbye, I'm Gone
TTITLE2=Wishin' For You
TTITLE3=Real Honk Tonk
TTITLE4=Last Call For Rock And Roll
TTITLE5=Higher Ground
TTITLE6=Walkin' The Stairs
TTITLE7=Overnight Success
TTITLE8=Yes I Do
TTITLE9=Please Mr. Bartender
TTITLE10=Mystery Train
TTITLE11=If You Go Away
EXTD=
EXTT0=
EXTT1=
EXTT2=
EXTT3=
EXTT4=
EXTT5=
EXTT6=
EXTT7=
EXTT8=
EXTT9=
EXTT10=
EXTT11=
PLAYORDER=
